:FULLY-SPECIFIED
:FORCE-ALL-JOINTS-BE-3DOF
:DEGREES
57
root 0.552849 17.3478 -6.111 2.65526 -5.11134 -2.58878
lfemur -25.1595 9.13769 -14.0073
ltibia 91.6239 -0 0
lfoot 6.029 -3.67693 -0.232408
ltoes -11.5302 0 0
rfemur -12.7538 -2.01092 27.3897
rtibia 61.2644 -0 0
rfoot -3.56766 -6.55193 -0.0278736
rtoes 2.18498 -0 0
lowerback 18.2508 -0.712254 1.27049
upperback 2.60265 -0.619151 0.713656
thorax -7.3712 -0.340327 0.18617
lowerneck -2.99379 1.7084 -0.0792789
upperneck -14.3585 2.14274 -1.24417
head -3.75421 1.12027 -0.474391
lclavicle 3.77691e-15 4.21423e-14 0
lhumerus -42.2076 -11.8152 93.4488
lradius 104.253 -0 0
lwrist 33.058 0 0
lhand -38.5287 12.2668 -0.0462883
lfingers 7.12502 -0 0
lthumb -11.5488 41.9215 -0.0434013
rclavicle 3.77691e-15 4.21423e-14 0
rhumerus -35.0651 10.5093 -87.4005
rradius 94.9752 -0 0
rwrist -1.44325 0 0
rhand -44.31 37.9308 0.00640163
rfingers 7.12502 -0 0
rthumb -17.1199 8.66098 0.00732008
58
root 0.553523 17.3516 -5.57167 2.5222 -4.62018 -2.30811
lfemur -24.9174 8.45806 -14.6027
ltibia 89.1289 -0 0
lfoot 4.90695 -3.55523 -0.251274
ltoes -11.7772 0 0
rfemur -12.7251 -2.53817 26.8204
rtibia 63.5325 -0 0
rfoot -2.20806 -6.55644 -0.0272274
rtoes 3.2862 -0 0
lowerback 18.2385 -0.709488 0.951995
upperback 2.6286 -0.690577 0.545725
thorax -7.33125 -0.368184 0.202948
lowerneck -3.15816 1.5725 -0.183169
upperneck -14.1241 1.99593 -0.937079
head -3.6626 1.04007 -0.358081
lclavicle 3.77691e-15 4.21423e-14 0
lhumerus -41.4016 -11.9697 93.0943
lradius 104.356 -0 0
lwrist 32.9148 0 0
lhand -38.4167 12.0625 -0.0488854
lfingers 7.12502 -0 0
lthumb -11.4408 41.7229 -0.0458408
rclavicle 3.77691e-15 4.21423e-14 0
rhumerus -35.6429 10.283 -87.3208
rradius 94.2516 -0 0
rwrist -1.30485 0 0
rhand -44.3153 37.9318 0.00630663
rfingers 7.12502 -0 0
rthumb -17.125 8.6625 0.00721115
59
root 0.554197 17.3554 -5.03234 2.39009 -4.11778 -2.02222
lfemur -24.6534 7.76557 -15.2146
ltibia 86.5749 -0 0
lfoot 3.75997 -3.429 -0.26811
ltoes -12.0273 0 0
rfemur -12.7018 -3.07205 26.2374
rtibia 65.8522 -0 0
rfoot -0.821583 -6.56039 -0.0263773
rtoes 4.40779 -0 0
lowerback 18.2264 -0.707123 0.62598
upperback 2.65463 -0.764137 0.374036
thorax -7.29142 -0.39694 0.220523
lowerneck -3.32527 1.43359 -0.288744
upperneck -13.8854 1.84498 -0.62405
head -3.5694 0.958085 -0.239358
lclavicle 3.77691e-15 4.21423e-14 0
lhumerus -40.5689 -12.1275 92.7287
lradius 104.464 -0 0
lwrist 32.7664 0 0
lhand -38.3023 11.8529 -0.051103
lfingers 7.12502 -0 0
lthumb -11.3304 41.519 -0.0479247
rclavicle 3.77691e-15 4.21423e-14 0
rhumerus -36.2384 10.0534 -87.2378
rradius 93.5106 -0 0
rwrist -1.16433 0 0
rhand -44.3226 37.934 0.00616576
rfingers 7.12502 -0 0
rthumb -17.1321 8.66536 0.00704986
60
root 0.554871 17.3592 -4.49302 2.25944 -3.60644 -1.73237
lfemur -24.368 7.06391 -15.8408
ltibia 83.9738 -0 0
lfoot 2.5941 -3.29886 -0.28261
ltoes -12.2793 0 0
rfemur -12.6831 -3.61036 25.6434
rtibia 68.2118 -0 0
rfoot 0.585483 -6.56382 -0.0253502
rtoes 5.54525 -0 0
lowerback 18.2143 -0.705174 0.29399
upperback 2.68066 -0.839485 0.199395
thorax -7.25183 -0.426464 0.238806
lowerneck -3.49455 1.29232 -0.395514
upperneck -13.6433 1.69054 -0.306649
head -3.47492 0.874691 -0.1188
lclavicle 3.77691e-15 4.21423e-14 0
lhumerus -39.7139 -12.2874 92.3536
lradius 104.578 -0 0
lwrist 32.6133 0 0
lhand -38.1859 11.6389 -0.0529055
lfingers 7.12502 -0 0
lthumb -11.2182 41.311 -0.0496195
rclavicle 3.77691e-15 4.21423e-14 0
rhumerus -36.8486 9.82173 -87.1516
rradius 92.7555 -0 0
rwrist -1.02232 0 0
rhand -44.3319 37.9372 0.00598339
rfingers 7.12502 -0 0
rthumb -17.141 8.66945 0.00684122
61
root 0.555545 17.363 -3.95369 2.13072 -3.08844 -1.4398
lfemur -24.062 6.35676 -16.4788
ltibia 81.3378 -0 0
lfoot 1.41539 -3.16539 -0.294512
ltoes -12.5322 0 0
rfemur -12.6684 -4.15086 25.0412
rtibia 70.5997 -0 0
rfoot 2.00683 -6.56675 -0.024173
rtoes 6.69407 -0 0
lowerback 18.2024 -0.703659 -0.0424316
upperback 2.7066 -0.916274 0.0226091
thorax -7.21261 -0.456621 0.257705
lowerneck -3.66543 1.14934 -0.502993
upperneck -13.3988 1.53325 0.0135723
head -3.37949 0.790269 0.00301701
lclavicle 3.77691e-15 4.21423e-14 0
lhumerus -38.8412 -12.4482 91.9704
lradius 104.697 -0 0
lwrist 32.4561 0 0
lhand -38.0681 11.4214 -0.0542642
lfingers 7.12502 -0 0
lthumb -11.1046 41.0994 -0.0508981
rclavicle 3.77691e-15 4.21423e-14 0
rhumerus -37.4706 9.589 -87.0623
rradius 91.9896 -0 0
rwrist -0.879446 0 0
rhand -44.3429 37.9413 0.00576393
rfingers 7.12502 -0 0
rthumb -17.1516 8.67469 0.00659028
62
root 0.556219 17.3668 -3.41436 2.00434 -2.56612 -1.14572
lfemur -23.736 5.64775 -17.1262
ltibia 78.6791 -0 0
lfoot 0.22988 -3.02923 -0.303605
ltoes -12.7848 0 0
rfemur -12.6569 -4.69134 24.4335
rtibia 73.0043 -0 0
rfoot 3.43616 -6.5692 -0.0228724
rtoes 7.84976 -0 0
lowerback 18.1906 -0.70259 -0.381741
upperback 2.73236 -0.99416 -0.155514
thorax -7.17388 -0.48728 0.277131
lowerneck -3.83735 1.00528 -0.610705
upperneck -13.1526 1.37381 0.335069
head -3.2834 0.705202 0.12552
lclavicle 3.77691e-15 4.21423e-14 0
lhumerus -37.9552 -12.609 91.581
lradius 104.819 -0 0
lwrist 32.2956 0 0
lhand -37.9493 11.2013 -0.0551571
lfingers 7.12502 -0 0
lthumb -10.99 40.8854 -0.0517399
rclavicle 3.77691e-15 4.21423e-14 0
rhumerus -38.1014 9.3563 -86.97
rradius 91.2164 -0 0
rwrist -0.736354 0 0
rhand -44.3554 37.9464 0.00551185
rfingers 7.12502 -0 0
rthumb -17.1636 8.68098 0.00630215
63
root 0.556893 17.3707 -2.87504 1.88068 -2.04179 -0.851314
lfemur -23.3908 4.94048 -17.7805
ltibia 76.0099 -0 0
lfoot -0.956383 -2.891 -0.30973
ltoes -13.0361 0 0
rfemur -12.648 -5.22956 23.823
rtibia 75.414 -0 0
rfoot 4.86717 -6.57121 -0.0214745
rtoes 9.0078 -0 0
lowerback 18.179 -0.701982 -0.722392
upperback 2.75786 -1.0728 -0.334167
thorax -7.13576 -0.518309 0.296993
lowerneck -4.00974 0.860801 -0.718178
upperneck -12.9056 1.21291 0.65631
head -3.18697 0.619876 0.248138
lclavicle 3.77691e-15 4.21423e-14 0
lhumerus -37.0604 -12.7687 91.1868
lradius 104.944 -0 0
lwrist 32.1324 0 0
lhand -37.8301 10.9795 -0.0555694
lfingers 7.12502 -0 0
lthumb -10.875 40.6696 -0.052131
rclavicle 3.77691e-15 4.21423e-14 0
rhumerus -38.7379 9.1247 -86.8749
rradius 90.4391 -0 0
rwrist -0.593674 0 0
rhand -44.3692 37.9523 0.0052316
rfingers 7.12502 -0 0
rthumb -17.1769 8.68823 0.00598193
64
root 0.557567 17.3745 -2.33571 1.76005 -1.51779 -0.557754
lfemur -23.0275 4.23851 -18.4393
ltibia 73.3423 -0 0
lfoot -2.13735 -2.75135 -0.312783
ltoes -13.285 0 0
rfemur -12.6414 -5.76327 23.2126
rtibia 77.8171 -0 0
rfoot 6.29356 -6.57279 -0.0200045
rtoes 10.1637 -0 0
lowerback 18.1674 -0.701848 -1.06284
upperback 2.783 -1.15185 -0.512541
thorax -7.09839 -0.549572 0.317201
lowerneck -4.18204 0.716569 -0.824949
upperneck -12.6586 1.0513 0.975773
head -3.09049 0.534681 0.370302
lclavicle 3.77691e-15 4.21423e-14 0
lhumerus -36.1612 -12.9265 90.7898
lradius 105.071 -0 0
lwrist 31.967 0 0
lhand -37.7109 10.7568 -0.0554938
lfingers 7.12502 -0 0
lthumb -10.76 40.453 -0.0520644
rclavicle 3.77691e-15 4.21423e-14 0
rhumerus -39.3773 8.89524 -86.7774
rradius 89.6612 -0 0
rwrist -0.452042 0 0
rhand -44.3842 37.959 0.00492764
rfingers 7.12502 -0 0
rthumb -17.1913 8.69633 0.00563471
65
root 0.558241 17.3783 -1.79638 1.64273 -0.996444 -0.266196
lfemur -22.6473 3.54534 -19.1
ltibia 70.6884 -0 0
lfoot -3.30698 -2.6109 -0.312711
ltoes -13.5303 0 0
rfemur -12.6366 -6.29022 22.6048
rtibia 80.2019 -0 0
rfoot 7.70902 -6.57399 -0.0184865
rtoes 11.313 -0 0
lowerback 18.156 -0.702201 -1.40155
upperback 2.80768 -1.23098 -0.689826
thorax -7.06188 -0.580939 0.337667
lowerneck -4.35372 0.573244 -0.930562
upperneck -12.4124 0.889709 1.29195
head -2.99426 0.450009 0.491444
lclavicle 3.77691e-15 4.21423e-14 0
lhumerus -35.2624 -13.0818 90.3918
lradius 105.2 -0 0
lwrist 31.8002 0 0
lhand -37.5921 10.5342 -0.0549303
lfingers 7.12502 -0 0
lthumb -10.6455 40.2364 -0.0515399
rclavicle 3.77691e-15 4.21423e-14 0
rhumerus -40.0166 8.66895 -86.6777
rradius 88.8859 -0 0
rwrist -0.312094 0 0
rhand -44.4001 37.9663 0.00460439
rfingers 7.12502 -0 0
rthumb -17.2066 8.7052 0.00526553
66
root 0.558915 17.3821 -1.25706 1.52897 -0.480115 0.0222229
lfemur -22.2513 2.86439 -19.7599
ltibia 68.0604 -0 0
lfoot -4.45921 -2.47029 -0.309521
ltoes -13.7711 0 0
rfemur -12.6334 -6.80815 22.0025
rtibia 82.5569 -0 0
rfoot 9.10727 -6.57482 -0.0169431
rtoes 12.4511 -0 0
lowerback 18.1447 -0.703054 -1.73696
upperback 2.83179 -1.30984 -0.865211
thorax -7.02636 -0.612274 0.358301
lowerneck -4.52421 0.431496 -1.03456
upperneck -12.1677 0.728918 1.60334
head -2.89859 0.366257 0.611001
lclavicle 3.77691e-15 4.21423e-14 0
lhumerus -34.3684 -13.2339 89.9945
lradius 105.329 -0 0
lwrist 31.6326 0 0
lhand -37.4743 10.3125 -0.0538862
lfingers 7.12502 -0 0
lthumb -10.5319 40.0207 -0.0505644
rclavicle 3.77691e-15 4.21423e-14 0
rhumerus -40.6527 8.44686 -86.5762
rradius 88.1168 -0 0
rwrist -0.174463 0 0
rhand -44.4167 37.9743 0.0042662
rfingers 7.12502 -0 0
rthumb -17.2226 8.71474 0.00487937
